<svg width="184" height="29" viewBox="0 0 184 29" fill="none" xmlns="http://www.w3.org/2000/svg">
<path d="M29.5593 5.9558C28.314 5.9558 27.1208 6.4317 26.2151 7.25909L28.6662 9.70959C28.9209 9.51867 29.2295 9.412 29.5593 9.412C29.8891 9.412 30.1977 9.51867 30.4524 9.70959L32.9034 7.25909C31.9976 6.43182 30.8046 5.9558 29.5593 5.9558Z" fill="#0A1329"/>
<path d="M29.559 0.733334C26.9157 0.733334 24.3956 1.74216 22.4884 3.53367L24.9362 5.9808C26.1959 4.83476 27.8378 4.1894 29.5591 4.1894C31.2804 4.1894 32.9222 4.83476 34.1819 5.9808L36.6296 3.53367C34.7225 1.74227 32.2024 0.733334 29.559 0.733334Z" fill="#0A1329"/>
<path d="M44.25 6.4159V9.87196H49.8965V13.0216H9.10354V9.87196H14.75V6.4159H0V9.87196H5.64648V18.5271L19.1673 22.2136V26.3083H22.8548V28.2667H26.3118V26.3083H32.6882V28.2667H36.1452V26.3083H39.8327V22.2136L53.3535 18.5271V9.87196H59V6.4159H44.25Z" fill="#0A1329"/>
<path d="M76.98 21C76.86 21 76.758 20.964 76.674 20.892C76.602 20.808 76.566 20.706 76.566 20.586V8.832C76.566 8.7 76.602 8.598 76.674 8.526C76.758 8.442 76.86 8.4 76.98 8.4H81.066C82.878 8.4 84.186 8.808 84.99 9.624C85.794 10.428 86.214 11.646 86.25 13.278C86.262 13.626 86.268 14.094 86.268 14.682C86.268 15.27 86.262 15.744 86.25 16.104C86.214 17.244 86.022 18.174 85.674 18.894C85.338 19.602 84.804 20.13 84.072 20.478C83.34 20.826 82.368 21 81.156 21H76.98ZM81.066 19.47C81.894 19.47 82.548 19.356 83.028 19.128C83.52 18.9 83.874 18.54 84.09 18.048C84.318 17.544 84.444 16.872 84.468 16.032C84.492 15.312 84.504 14.862 84.504 14.682C84.504 14.49 84.492 14.046 84.468 13.35C84.444 12.162 84.162 11.298 83.622 10.758C83.082 10.206 82.2 9.93 80.976 9.93H78.33V19.47H81.066ZM89.1562 21C89.0362 21 88.9342 20.964 88.8502 20.892C88.7782 20.808 88.7422 20.706 88.7422 20.586V12.072C88.7422 11.952 88.7782 11.85 88.8502 11.766C88.9342 11.682 89.0362 11.64 89.1562 11.64H89.9842C90.1042 11.64 90.2062 11.682 90.2902 11.766C90.3742 11.85 90.4162 11.952 90.4162 12.072V12.864C90.9082 12.048 91.7482 11.64 92.9362 11.64H93.6382C93.7582 11.64 93.8542 11.682 93.9262 11.766C94.0102 11.838 94.0522 11.934 94.0522 12.054V12.792C94.0522 12.912 94.0102 13.008 93.9262 13.08C93.8542 13.152 93.7582 13.188 93.6382 13.188H92.5582C91.9102 13.188 91.4002 13.38 91.0282 13.764C90.6562 14.136 90.4702 14.646 90.4702 15.294V20.586C90.4702 20.706 90.4282 20.808 90.3442 20.892C90.2602 20.964 90.1582 21 90.0382 21H89.1562ZM99.2383 21.18C97.9183 21.18 96.8923 20.808 96.1603 20.064C95.4403 19.32 95.0563 18.33 95.0083 17.094L94.9903 16.32L95.0083 15.546C95.0563 14.322 95.4463 13.338 96.1783 12.594C96.9103 11.838 97.9303 11.46 99.2383 11.46C100.546 11.46 101.566 11.838 102.298 12.594C103.03 13.338 103.42 14.322 103.468 15.546C103.48 15.678 103.486 15.936 103.486 16.32C103.486 16.704 103.48 16.962 103.468 17.094C103.42 18.33 103.03 19.32 102.298 20.064C101.578 20.808 100.558 21.18 99.2383 21.18ZM99.2383 19.794C99.9943 19.794 100.588 19.554 101.02 19.074C101.464 18.594 101.704 17.904 101.74 17.004C101.752 16.884 101.758 16.656 101.758 16.32C101.758 15.984 101.752 15.756 101.74 15.636C101.704 14.736 101.464 14.046 101.02 13.566C100.588 13.086 99.9943 12.846 99.2383 12.846C98.4823 12.846 97.8823 13.086 97.4383 13.566C96.9943 14.046 96.7603 14.736 96.7363 15.636L96.7183 16.32L96.7363 17.004C96.7603 17.904 96.9943 18.594 97.4383 19.074C97.8823 19.554 98.4823 19.794 99.2383 19.794ZM106.154 21C106.034 21 105.932 20.964 105.848 20.892C105.776 20.808 105.74 20.706 105.74 20.586V12.054C105.74 11.934 105.776 11.838 105.848 11.766C105.932 11.682 106.034 11.64 106.154 11.64H107C107.12 11.64 107.216 11.682 107.288 11.766C107.372 11.838 107.414 11.934 107.414 12.054V12.846C107.762 12.402 108.17 12.06 108.638 11.82C109.118 11.58 109.712 11.46 110.42 11.46C111.572 11.46 112.466 11.832 113.102 12.576C113.75 13.308 114.074 14.286 114.074 15.51V20.586C114.074 20.706 114.032 20.808 113.948 20.892C113.876 20.964 113.78 21 113.66 21H112.76C112.64 21 112.538 20.964 112.454 20.892C112.382 20.808 112.346 20.706 112.346 20.586V15.6C112.346 14.748 112.136 14.088 111.716 13.62C111.308 13.152 110.714 12.918 109.934 12.918C109.178 12.918 108.578 13.158 108.134 13.638C107.69 14.106 107.468 14.76 107.468 15.6V20.586C107.468 20.706 107.426 20.808 107.342 20.892C107.27 20.964 107.174 21 107.054 21H106.154ZM120.4 21.18C119.164 21.18 118.174 20.802 117.43 20.046C116.698 19.278 116.296 18.234 116.224 16.914L116.206 16.302L116.224 15.708C116.308 14.412 116.716 13.38 117.448 12.612C118.192 11.844 119.17 11.46 120.382 11.46C121.714 11.46 122.746 11.886 123.478 12.738C124.21 13.578 124.576 14.718 124.576 16.158V16.464C124.576 16.584 124.534 16.686 124.45 16.77C124.378 16.842 124.282 16.878 124.162 16.878H117.934V17.04C117.97 17.82 118.204 18.486 118.636 19.038C119.08 19.578 119.662 19.848 120.382 19.848C120.934 19.848 121.384 19.74 121.732 19.524C122.092 19.296 122.356 19.062 122.524 18.822C122.632 18.678 122.71 18.594 122.758 18.57C122.818 18.534 122.92 18.516 123.064 18.516H123.946C124.054 18.516 124.144 18.546 124.216 18.606C124.288 18.666 124.324 18.75 124.324 18.858C124.324 19.122 124.156 19.44 123.82 19.812C123.496 20.184 123.034 20.508 122.434 20.784C121.846 21.048 121.168 21.18 120.4 21.18ZM122.866 15.636V15.582C122.866 14.754 122.638 14.082 122.182 13.566C121.738 13.038 121.138 12.774 120.382 12.774C119.626 12.774 119.026 13.038 118.582 13.566C118.15 14.082 117.934 14.754 117.934 15.582V15.636H122.866ZM129.968 21.18C129.128 21.18 128.42 21.048 127.844 20.784C127.28 20.508 126.854 20.196 126.566 19.848C126.29 19.5 126.152 19.212 126.152 18.984C126.152 18.864 126.194 18.774 126.278 18.714C126.374 18.642 126.47 18.606 126.566 18.606H127.376C127.496 18.606 127.604 18.666 127.7 18.786C127.988 19.122 128.3 19.386 128.636 19.578C128.972 19.77 129.422 19.866 129.986 19.866C130.61 19.866 131.114 19.746 131.498 19.506C131.894 19.254 132.092 18.912 132.092 18.48C132.092 18.192 132.008 17.958 131.84 17.778C131.684 17.586 131.408 17.424 131.012 17.292C130.628 17.148 130.052 16.992 129.284 16.824C128.24 16.596 127.496 16.266 127.052 15.834C126.62 15.402 126.404 14.844 126.404 14.16C126.404 13.704 126.536 13.272 126.8 12.864C127.076 12.444 127.472 12.108 127.988 11.856C128.516 11.592 129.146 11.46 129.878 11.46C130.646 11.46 131.3 11.586 131.84 11.838C132.38 12.09 132.782 12.39 133.046 12.738C133.322 13.074 133.46 13.356 133.46 13.584C133.46 13.692 133.418 13.782 133.334 13.854C133.262 13.926 133.172 13.962 133.064 13.962H132.308C132.164 13.962 132.044 13.902 131.948 13.782C131.756 13.554 131.588 13.38 131.444 13.26C131.312 13.128 131.114 13.014 130.85 12.918C130.598 12.822 130.274 12.774 129.878 12.774C129.302 12.774 128.858 12.9 128.546 13.152C128.234 13.392 128.078 13.71 128.078 14.106C128.078 14.358 128.144 14.574 128.276 14.754C128.408 14.922 128.66 15.078 129.032 15.222C129.416 15.366 129.968 15.516 130.688 15.672C131.828 15.912 132.632 16.26 133.1 16.716C133.58 17.16 133.82 17.73 133.82 18.426C133.82 18.942 133.67 19.41 133.37 19.83C133.07 20.25 132.626 20.58 132.038 20.82C131.462 21.06 130.772 21.18 129.968 21.18ZM136.336 21C136.216 21 136.114 20.964 136.03 20.892C135.958 20.808 135.922 20.706 135.922 20.586V8.634C135.922 8.514 135.958 8.418 136.03 8.346C136.114 8.262 136.216 8.22 136.336 8.22H137.236C137.356 8.22 137.452 8.262 137.524 8.346C137.608 8.418 137.65 8.514 137.65 8.634V12.828C137.998 12.384 138.406 12.048 138.874 11.82C139.342 11.58 139.924 11.46 140.62 11.46C141.772 11.46 142.666 11.832 143.302 12.576C143.95 13.308 144.274 14.286 144.274 15.51V20.586C144.274 20.706 144.232 20.808 144.148 20.892C144.076 20.964 143.98 21 143.86 21H142.96C142.84 21 142.738 20.964 142.654 20.892C142.582 20.808 142.546 20.706 142.546 20.586V15.6C142.546 14.748 142.336 14.088 141.916 13.62C141.508 13.152 140.914 12.918 140.134 12.918C139.378 12.918 138.772 13.158 138.316 13.638C137.872 14.106 137.65 14.76 137.65 15.6V20.586C137.65 20.706 137.608 20.808 137.524 20.892C137.452 20.964 137.356 21 137.236 21H136.336ZM150.707 21.18C149.387 21.18 148.361 20.808 147.629 20.064C146.909 19.32 146.525 18.33 146.477 17.094L146.459 16.32L146.477 15.546C146.525 14.322 146.915 13.338 147.647 12.594C148.379 11.838 149.399 11.46 150.707 11.46C152.015 11.46 153.035 11.838 153.767 12.594C154.499 13.338 154.889 14.322 154.937 15.546C154.949 15.678 154.955 15.936 154.955 16.32C154.955 16.704 154.949 16.962 154.937 17.094C154.889 18.33 154.499 19.32 153.767 20.064C153.047 20.808 152.027 21.18 150.707 21.18ZM150.707 19.794C151.463 19.794 152.057 19.554 152.489 19.074C152.933 18.594 153.173 17.904 153.209 17.004C153.221 16.884 153.227 16.656 153.227 16.32C153.227 15.984 153.221 15.756 153.209 15.636C153.173 14.736 152.933 14.046 152.489 13.566C152.057 13.086 151.463 12.846 150.707 12.846C149.951 12.846 149.351 13.086 148.907 13.566C148.463 14.046 148.229 14.736 148.205 15.636L148.187 16.32L148.205 17.004C148.229 17.904 148.463 18.594 148.907 19.074C149.351 19.554 149.951 19.794 150.707 19.794ZM157.641 24.42C157.521 24.42 157.419 24.378 157.335 24.294C157.263 24.222 157.227 24.126 157.227 24.006V12.054C157.227 11.934 157.263 11.838 157.335 11.766C157.419 11.682 157.521 11.64 157.641 11.64H158.469C158.589 11.64 158.685 11.682 158.757 11.766C158.841 11.838 158.883 11.934 158.883 12.054V12.846C159.555 11.922 160.539 11.46 161.835 11.46C163.095 11.46 164.037 11.856 164.661 12.648C165.297 13.44 165.639 14.46 165.687 15.708C165.699 15.84 165.705 16.044 165.705 16.32C165.705 16.596 165.699 16.8 165.687 16.932C165.639 18.168 165.297 19.188 164.661 19.992C164.025 20.784 163.083 21.18 161.835 21.18C160.587 21.18 159.615 20.73 158.919 19.83V24.006C158.919 24.126 158.883 24.222 158.811 24.294C158.739 24.378 158.643 24.42 158.523 24.42H157.641ZM161.457 19.722C162.309 19.722 162.927 19.458 163.311 18.93C163.707 18.402 163.923 17.706 163.959 16.842C163.971 16.722 163.977 16.548 163.977 16.32C163.977 14.052 163.137 12.918 161.457 12.918C160.629 12.918 160.005 13.194 159.585 13.746C159.177 14.286 158.955 14.934 158.919 15.69L158.901 16.374L158.919 17.076C158.943 17.784 159.171 18.402 159.603 18.93C160.035 19.458 160.653 19.722 161.457 19.722ZM168.58 21C168.46 21 168.358 20.964 168.274 20.892C168.202 20.808 168.166 20.706 168.166 20.586V8.814C168.166 8.694 168.202 8.598 168.274 8.526C168.358 8.442 168.46 8.4 168.58 8.4H169.534C169.654 8.4 169.75 8.442 169.822 8.526C169.906 8.598 169.948 8.694 169.948 8.814V20.586C169.948 20.706 169.906 20.808 169.822 20.892C169.75 20.964 169.654 21 169.534 21H168.58ZM173.501 21C173.381 21 173.279 20.964 173.195 20.892C173.123 20.808 173.087 20.706 173.087 20.586V8.832C173.087 8.7 173.123 8.598 173.195 8.526C173.279 8.442 173.381 8.4 173.501 8.4H177.587C179.399 8.4 180.707 8.808 181.511 9.624C182.315 10.428 182.735 11.646 182.771 13.278C182.783 13.626 182.789 14.094 182.789 14.682C182.789 15.27 182.783 15.744 182.771 16.104C182.735 17.244 182.543 18.174 182.195 18.894C181.859 19.602 181.325 20.13 180.593 20.478C179.861 20.826 178.889 21 177.677 21H173.501ZM177.587 19.47C178.415 19.47 179.069 19.356 179.549 19.128C180.041 18.9 180.395 18.54 180.611 18.048C180.839 17.544 180.965 16.872 180.989 16.032C181.013 15.312 181.025 14.862 181.025 14.682C181.025 14.49 181.013 14.046 180.989 13.35C180.965 12.162 180.683 11.298 180.143 10.758C179.603 10.206 178.721 9.93 177.497 9.93H174.851V19.47H177.587Z" fill="#0A1329"/>
</svg>
