<svg width="257" height="32" viewBox="0 0 257 32" fill="none" xmlns="http://www.w3.org/2000/svg">
<path d="M34.0681 6.06934C32.6328 6.06934 31.2577 6.62244 30.2137 7.58405L33.0388 10.4321C33.3323 10.2102 33.688 10.0862 34.0681 10.0862C34.4482 10.0862 34.8039 10.2102 35.0974 10.4321L37.9223 7.58405C36.8784 6.62258 35.5034 6.06934 34.0681 6.06934Z" fill="white"/>
<path d="M34.068 0C31.0215 0 28.1169 1.17249 25.9188 3.25463L28.74 6.09875C30.1919 4.76679 32.0842 4.01674 34.0681 4.01674C36.052 4.01674 37.9443 4.76679 39.3961 6.09875L42.2172 3.25463C40.0191 1.17262 37.1146 0 34.068 0Z" fill="white"/>
<path d="M51 6.60449V10.6212H57.5078V14.2818H10.4922V10.6212H17V6.60449H0V10.6212H6.50781V20.6805L22.0911 24.965V29.7239H26.3411V32.0001H30.3255V29.7239H37.6745V32.0001H41.6589V29.7239H45.9089V24.965L61.4922 20.6805V10.6212H68V6.60449H51Z" fill="white"/>
<path d="M90.47 24C90.2967 24 90.1407 23.9393 90.002 23.818C89.8807 23.6793 89.82 23.5233 89.82 23.35V6.45C89.82 6.25933 89.8807 6.10333 90.002 5.982C90.1407 5.86067 90.2967 5.8 90.47 5.8H97.23C99.778 5.8 101.754 6.40667 103.158 7.62C104.562 8.83333 105.299 10.5927 105.368 12.898C105.385 13.4007 105.394 14.068 105.394 14.9C105.394 15.732 105.385 16.3907 105.368 16.876C105.281 19.2853 104.562 21.0793 103.21 22.258C101.875 23.4193 99.9253 24 97.36 24H90.47ZM97.23 20.256C98.374 20.256 99.2147 19.9873 99.752 19.45C100.289 18.8953 100.575 18.02 100.61 16.824C100.645 16.3213 100.662 15.6713 100.662 14.874C100.662 14.0767 100.645 13.4353 100.61 12.95C100.575 11.7887 100.263 10.9307 99.674 10.376C99.102 9.82133 98.244 9.544 97.1 9.544H94.5V20.256H97.23ZM108.795 24C108.605 24 108.449 23.9393 108.327 23.818C108.206 23.6967 108.145 23.5407 108.145 23.35V11.13C108.145 10.9393 108.206 10.7833 108.327 10.662C108.449 10.5407 108.605 10.48 108.795 10.48H111.785C111.976 10.48 112.132 10.5493 112.253 10.688C112.392 10.8093 112.461 10.9567 112.461 11.13V12.17C113.415 11.0433 114.697 10.48 116.309 10.48H117.453C117.644 10.48 117.8 10.5407 117.921 10.662C118.043 10.7833 118.103 10.9393 118.103 11.13V13.808C118.103 13.9813 118.043 14.1373 117.921 14.276C117.8 14.3973 117.644 14.458 117.453 14.458H114.931C114.221 14.458 113.666 14.6573 113.267 15.056C112.886 15.4373 112.695 15.9833 112.695 16.694V23.35C112.695 23.5407 112.626 23.6967 112.487 23.818C112.366 23.9393 112.21 24 112.019 24H108.795ZM126.221 24.26C124.072 24.26 122.416 23.7487 121.255 22.726C120.094 21.7033 119.461 20.2647 119.357 18.41C119.34 18.1847 119.331 17.7947 119.331 17.24C119.331 16.6853 119.34 16.2953 119.357 16.07C119.461 14.2327 120.111 12.8027 121.307 11.78C122.503 10.74 124.141 10.22 126.221 10.22C128.318 10.22 129.965 10.74 131.161 11.78C132.357 12.8027 133.007 14.2327 133.111 16.07C133.128 16.2953 133.137 16.6853 133.137 17.24C133.137 17.7947 133.128 18.1847 133.111 18.41C133.007 20.2647 132.374 21.7033 131.213 22.726C130.052 23.7487 128.388 24.26 126.221 24.26ZM126.221 21.088C126.984 21.088 127.547 20.8627 127.911 20.412C128.275 19.944 128.483 19.2333 128.535 18.28C128.552 18.1067 128.561 17.76 128.561 17.24C128.561 16.72 128.552 16.3733 128.535 16.2C128.483 15.264 128.266 14.562 127.885 14.094C127.521 13.626 126.966 13.392 126.221 13.392C124.782 13.392 124.02 14.328 123.933 16.2L123.907 17.24L123.933 18.28C123.968 19.2333 124.167 19.944 124.531 20.412C124.912 20.8627 125.476 21.088 126.221 21.088ZM136.37 24C136.179 24 136.023 23.9393 135.902 23.818C135.78 23.6967 135.72 23.5407 135.72 23.35V11.13C135.72 10.9393 135.78 10.7833 135.902 10.662C136.023 10.5407 136.179 10.48 136.37 10.48H139.36C139.55 10.48 139.706 10.5407 139.828 10.662C139.966 10.7833 140.036 10.9393 140.036 11.13V12.118C140.504 11.546 141.102 11.0867 141.83 10.74C142.575 10.3933 143.416 10.22 144.352 10.22C145.877 10.22 147.116 10.74 148.07 11.78C149.023 12.8027 149.5 14.2413 149.5 16.096V23.35C149.5 23.5233 149.439 23.6793 149.318 23.818C149.196 23.9393 149.04 24 148.85 24H145.574C145.4 24 145.244 23.9393 145.106 23.818C144.984 23.6793 144.924 23.5233 144.924 23.35V16.252C144.924 15.4373 144.724 14.8133 144.326 14.38C143.927 13.9293 143.355 13.704 142.61 13.704C141.882 13.704 141.31 13.9293 140.894 14.38C140.478 14.8133 140.27 15.4373 140.27 16.252V23.35C140.27 23.5233 140.209 23.6793 140.088 23.818C139.966 23.9393 139.81 24 139.62 24H136.37ZM158.667 24.26C156.587 24.26 154.949 23.6967 153.753 22.57C152.557 21.4433 151.933 19.8053 151.881 17.656V16.746C151.95 14.7007 152.583 13.106 153.779 11.962C154.992 10.8007 156.613 10.22 158.641 10.22C160.114 10.22 161.353 10.5233 162.359 11.13C163.381 11.7193 164.144 12.534 164.647 13.574C165.167 14.614 165.427 15.81 165.427 17.162V17.786C165.427 17.9593 165.366 18.1153 165.245 18.254C165.123 18.3753 164.967 18.436 164.777 18.436H156.457V18.618C156.491 19.4327 156.691 20.0913 157.055 20.594C157.419 21.0967 157.947 21.348 158.641 21.348C159.074 21.348 159.429 21.2613 159.707 21.088C159.984 20.8973 160.235 20.672 160.461 20.412C160.617 20.2213 160.738 20.1087 160.825 20.074C160.929 20.022 161.085 19.996 161.293 19.996H164.517C164.673 19.996 164.803 20.048 164.907 20.152C165.028 20.2387 165.089 20.36 165.089 20.516C165.089 20.9667 164.829 21.4867 164.309 22.076C163.806 22.6653 163.069 23.1767 162.099 23.61C161.128 24.0433 159.984 24.26 158.667 24.26ZM160.851 15.862V15.81C160.851 14.9607 160.651 14.2933 160.253 13.808C159.871 13.3053 159.334 13.054 158.641 13.054C157.965 13.054 157.427 13.3053 157.029 13.808C156.647 14.2933 156.457 14.9607 156.457 15.81V15.862H160.851ZM173.428 24.26C172.024 24.26 170.845 24.0607 169.892 23.662C168.956 23.2633 168.263 22.7867 167.812 22.232C167.361 21.6773 167.136 21.1833 167.136 20.75C167.136 20.5767 167.197 20.438 167.318 20.334C167.457 20.2127 167.604 20.152 167.76 20.152H170.724C170.828 20.152 170.923 20.1953 171.01 20.282C171.218 20.4207 171.374 20.5333 171.478 20.62C171.859 20.8973 172.189 21.1053 172.466 21.244C172.761 21.3653 173.116 21.426 173.532 21.426C174.035 21.426 174.442 21.3307 174.754 21.14C175.083 20.932 175.248 20.646 175.248 20.282C175.248 19.9873 175.161 19.7533 174.988 19.58C174.832 19.4067 174.52 19.242 174.052 19.086C173.584 18.9127 172.873 18.7307 171.92 18.54C170.481 18.2453 169.372 17.7687 168.592 17.11C167.829 16.434 167.448 15.5327 167.448 14.406C167.448 13.6953 167.673 13.0193 168.124 12.378C168.575 11.7367 169.242 11.2167 170.126 10.818C171.027 10.4193 172.093 10.22 173.324 10.22C174.555 10.22 175.629 10.4107 176.548 10.792C177.467 11.1733 178.16 11.6413 178.628 12.196C179.113 12.7333 179.356 13.2273 179.356 13.678C179.356 13.834 179.295 13.9727 179.174 14.094C179.07 14.2153 178.94 14.276 178.784 14.276H176.08C175.941 14.276 175.811 14.2327 175.69 14.146C175.465 14.0247 175.265 13.8947 175.092 13.756C174.797 13.5307 174.52 13.3573 174.26 13.236C174 13.1147 173.679 13.054 173.298 13.054C172.847 13.054 172.483 13.158 172.206 13.366C171.946 13.574 171.816 13.8427 171.816 14.172C171.816 14.432 171.885 14.6487 172.024 14.822C172.18 14.9953 172.492 15.1687 172.96 15.342C173.445 15.498 174.156 15.6627 175.092 15.836C176.773 16.1307 177.995 16.6507 178.758 17.396C179.538 18.1413 179.928 19.0167 179.928 20.022C179.928 21.3047 179.356 22.336 178.212 23.116C177.068 23.8787 175.473 24.26 173.428 24.26ZM182.885 24C182.712 24 182.556 23.9393 182.417 23.818C182.296 23.6793 182.235 23.5233 182.235 23.35V6.19C182.235 5.99933 182.296 5.84333 182.417 5.722C182.556 5.60067 182.712 5.54 182.885 5.54H186.213C186.404 5.54 186.56 5.60067 186.681 5.722C186.803 5.84333 186.863 5.99933 186.863 6.19V11.988C187.903 10.8093 189.273 10.22 190.971 10.22C191.977 10.22 192.869 10.4453 193.649 10.896C194.447 11.3467 195.071 12.014 195.521 12.898C195.972 13.782 196.197 14.848 196.197 16.096V23.35C196.197 23.5233 196.137 23.6793 196.015 23.818C195.894 23.9393 195.738 24 195.547 24H192.193C192.02 24 191.864 23.9393 191.725 23.818C191.604 23.6793 191.543 23.5233 191.543 23.35V16.252C191.543 15.4373 191.344 14.8133 190.945 14.38C190.564 13.9293 190.001 13.704 189.255 13.704C188.51 13.704 187.921 13.9293 187.487 14.38C187.071 14.8133 186.863 15.4373 186.863 16.252V23.35C186.863 23.5407 186.803 23.6967 186.681 23.818C186.56 23.9393 186.404 24 186.213 24H182.885ZM205.541 24.26C203.392 24.26 201.737 23.7487 200.575 22.726C199.414 21.7033 198.781 20.2647 198.677 18.41C198.66 18.1847 198.651 17.7947 198.651 17.24C198.651 16.6853 198.66 16.2953 198.677 16.07C198.781 14.2327 199.431 12.8027 200.627 11.78C201.823 10.74 203.461 10.22 205.541 10.22C207.639 10.22 209.285 10.74 210.481 11.78C211.677 12.8027 212.327 14.2327 212.431 16.07C212.449 16.2953 212.457 16.6853 212.457 17.24C212.457 17.7947 212.449 18.1847 212.431 18.41C212.327 20.2647 211.695 21.7033 210.533 22.726C209.372 23.7487 207.708 24.26 205.541 24.26ZM205.541 21.088C206.304 21.088 206.867 20.8627 207.231 20.412C207.595 19.944 207.803 19.2333 207.855 18.28C207.873 18.1067 207.881 17.76 207.881 17.24C207.881 16.72 207.873 16.3733 207.855 16.2C207.803 15.264 207.587 14.562 207.205 14.094C206.841 13.626 206.287 13.392 205.541 13.392C204.103 13.392 203.34 14.328 203.253 16.2L203.227 17.24L203.253 18.28C203.288 19.2333 203.487 19.944 203.851 20.412C204.233 20.8627 204.796 21.088 205.541 21.088ZM215.69 28.94C215.517 28.94 215.361 28.8793 215.222 28.758C215.101 28.6367 215.04 28.4807 215.04 28.29V11.13C215.04 10.9393 215.101 10.7833 215.222 10.662C215.361 10.5407 215.517 10.48 215.69 10.48H218.628C218.819 10.48 218.975 10.5407 219.096 10.662C219.217 10.7833 219.278 10.9393 219.278 11.13V12.066C220.214 10.8353 221.557 10.22 223.308 10.22C225.007 10.22 226.333 10.7487 227.286 11.806C228.239 12.8633 228.759 14.354 228.846 16.278C228.863 16.5033 228.872 16.824 228.872 17.24C228.872 17.656 228.863 17.9767 228.846 18.202C228.777 20.074 228.257 21.556 227.286 22.648C226.315 23.7227 224.989 24.26 223.308 24.26C221.609 24.26 220.344 23.6793 219.512 22.518V28.29C219.512 28.4807 219.451 28.6367 219.33 28.758C219.209 28.8793 219.053 28.94 218.862 28.94H215.69ZM221.904 20.776C222.719 20.776 223.299 20.5333 223.646 20.048C224.01 19.5627 224.218 18.8953 224.27 18.046C224.305 17.6993 224.322 17.4307 224.322 17.24C224.322 17.0493 224.305 16.7807 224.27 16.434C224.218 15.5847 224.01 14.9173 223.646 14.432C223.299 13.9467 222.719 13.704 221.904 13.704C221.107 13.704 220.517 13.9553 220.136 14.458C219.772 14.9433 219.564 15.576 219.512 16.356L219.486 17.318L219.512 18.306C219.547 19.0167 219.763 19.606 220.162 20.074C220.561 20.542 221.141 20.776 221.904 20.776ZM232.378 24C232.205 24 232.049 23.9393 231.91 23.818C231.789 23.6793 231.728 23.5233 231.728 23.35V6.45C231.728 6.25933 231.789 6.10333 231.91 5.982C232.049 5.86067 232.205 5.8 232.378 5.8H235.862C236.053 5.8 236.209 5.86067 236.33 5.982C236.469 6.10333 236.538 6.25933 236.538 6.45V23.35C236.538 23.5407 236.469 23.6967 236.33 23.818C236.209 23.9393 236.053 24 235.862 24H232.378ZM240.808 24C240.635 24 240.479 23.9393 240.34 23.818C240.219 23.6793 240.158 23.5233 240.158 23.35V6.45C240.158 6.25933 240.219 6.10333 240.34 5.982C240.479 5.86067 240.635 5.8 240.808 5.8H247.568C250.116 5.8 252.092 6.40667 253.496 7.62C254.9 8.83333 255.637 10.5927 255.706 12.898C255.723 13.4007 255.732 14.068 255.732 14.9C255.732 15.732 255.723 16.3907 255.706 16.876C255.619 19.2853 254.9 21.0793 253.548 22.258C252.213 23.4193 250.263 24 247.698 24H240.808ZM247.568 20.256C248.712 20.256 249.553 19.9873 250.09 19.45C250.627 18.8953 250.913 18.02 250.948 16.824C250.983 16.3213 251 15.6713 251 14.874C251 14.0767 250.983 13.4353 250.948 12.95C250.913 11.7887 250.601 10.9307 250.012 10.376C249.44 9.82133 248.582 9.544 247.438 9.544H244.838V20.256H247.568Z" fill="white"/>
</svg>
